<?xml version="1.0" encoding="utf-8"?>
<!-- Generator: Adobe Illustrator 23.0.1, SVG Export Plug-In . SVG Version: 6.00 Build 0)  -->
<!DOCTYPE svg PUBLIC "-//W3C//DTD SVG 1.1//EN" "http://www.w3.org/Graphics/SVG/1.1/DTD/svg11.dtd" [
	<!ENTITY ns_extend "http://ns.adobe.com/Extensibility/1.0/">
	<!ENTITY ns_ai "http://ns.adobe.com/AdobeIllustrator/10.0/">
	<!ENTITY ns_graphs "http://ns.adobe.com/Graphs/1.0/">
	<!ENTITY ns_vars "http://ns.adobe.com/Variables/1.0/">
	<!ENTITY ns_imrep "http://ns.adobe.com/ImageReplacement/1.0/">
	<!ENTITY ns_sfw "http://ns.adobe.com/SaveForWeb/1.0/">
	<!ENTITY ns_custom "http://ns.adobe.com/GenericCustomNamespace/1.0/">
	<!ENTITY ns_adobe_xpath "http://ns.adobe.com/XPath/1.0/">
]>
<svg version="1.1" id="Layer_1" xmlns:x="&ns_extend;" xmlns:i="&ns_ai;" xmlns:graph="&ns_graphs;"
	 xmlns="http://www.w3.org/2000/svg" xmlns:xlink="http://www.w3.org/1999/xlink" x="0px" y="0px" viewBox="0 0 800 290"
	 style="enable-background:new 0 0 800 290;" xml:space="preserve">
<style type="text/css">
	.st0{clip-path:url(#SVGID_2_);}
	.st1{clip-path:url(#SVGID_4_);fill:#CA4539;}
	.st2{clip-path:url(#SVGID_6_);}
	.st3{clip-path:url(#SVGID_8_);fill:#FFFFFF;}
	.st4{clip-path:url(#SVGID_10_);}
	.st5{clip-path:url(#SVGID_12_);fill:#FFFFFF;}
	.st6{clip-path:url(#SVGID_14_);}
	.st7{clip-path:url(#SVGID_16_);fill:#7CB930;}
	.st8{clip-path:url(#SVGID_18_);}
	.st9{clip-path:url(#SVGID_20_);fill:#FFFFFF;}
	.st10{clip-path:url(#SVGID_22_);}
	.st11{clip-path:url(#SVGID_24_);fill:#56782A;}
	.st12{fill:#676767;}
</style>
<metadata  id="CorelCorpID_0Corel-Layer">
	<sfw  xmlns="&ns_sfw;">
		<slices></slices>
		<sliceSourceBounds  bottomLeftOrigin="true" height="556.2" width="798.6" x="0.9" y="-124.5"></sliceSourceBounds>
	</sfw>
</metadata>
<g>
	<g>
		<defs>
			
				<rect id="SVGID_1_" x="462.4" y="60.2" transform="matrix(0.9989 -4.735804e-02 4.735804e-02 0.9989 -7.2204 24.8369)" width="116.3" height="209.1"/>
		</defs>
		<clipPath id="SVGID_2_">
			<use xlink:href="#SVGID_1_"  style="overflow:visible;"/>
		</clipPath>
		<g class="st0">
			<defs>
				<rect id="SVGID_3_" x="379.5" y="-141.7" width="309.2" height="556.2"/>
			</defs>
			<clipPath id="SVGID_4_">
				<use xlink:href="#SVGID_3_"  style="overflow:visible;"/>
			</clipPath>
			<path class="st1" d="M556.5,60c1.7,0.6,3.2,1.5,4.6,2.6c1.4,1.1,2.7,2.3,3.8,3.7c3.3,4.1,5.3,9.1,6.7,14.2c1.4,5,2.2,10,2.9,15.1
				c1,7.6,1.6,15.2,1.9,22.8c0.9,22-0.5,44.2-9,64.5c-4.1,9.9-9.9,19-17.3,26.7c-7.9,8.2-17.4,14.5-26.6,21.1
				c-7.6,5.5-15,11.3-23.5,15.1c-6.2,2.8-12.9,4.6-18.2,8.9c-2.9,2.4-5.2,5.4-7,8.7c-0.6,1.1-1.3,2.4-1.2,3.7c0.2,1.4,1.2,2.8,0.2,4
				c-0.7,0.8-1.9,0.6-2.8,0c-1.5-1-2.8-2.8-3.2-4.9c-0.4-2.2-0.7-4.4-0.5-6.6c0.2-2.9,1.1-5.6,2.3-8.2c2-4.3,4.8-8.1,8-11.5
				c6.4-6.9,14.3-12.3,21.4-18.7c7-6.3,13-13.5,18.3-21.2c11.8-17.2,19.5-36,22.9-56.8c0.9-5.6,1.5-11.3,1.4-17
				c-0.1-5.7-0.8-11.5-2.1-17.1c-1.7-7.1-4.4-13.9-8.1-20.3c-2-3.5-4.4-6.9-4.7-11c-0.3-3,0.7-6.1,2.6-8.4c2.3-2.9,5.8-4.4,9.1-6.1
				c3.1-1.6,6.1-3.3,9.5-4C550.6,58.6,553.7,58.9,556.5,60z"/>
		</g>
	</g>
	<g>
		<defs>
			
				<rect id="SVGID_5_" x="509.2" y="101.4" transform="matrix(0.7793 -0.6266 0.6266 0.7793 33.1405 368.0817)" width="59.9" height="71.1"/>
		</defs>
		<clipPath id="SVGID_6_">
			<use xlink:href="#SVGID_5_"  style="overflow:visible;"/>
		</clipPath>
		<g class="st2">
			<defs>
				<rect id="SVGID_7_" x="379.5" y="-141.7" width="309.2" height="556.2"/>
			</defs>
			<clipPath id="SVGID_8_">
				<use xlink:href="#SVGID_7_"  style="overflow:visible;"/>
			</clipPath>
			<path class="st3" d="M538.2,92.4c1.3-1.2,3.2,0,4.5,1.5c2.8,3.3,5.4,6.9,7.3,10.8c3.4,6.8,4.7,14.3,4.8,21.8
				c0,6.8-1.2,13.4-2.3,19.9c-1.2,6.8-2.3,13.6-5.1,19.9c-1.7,3.9-3.8,7.5-5.8,11.2c-0.5,1-1.1,1.9-1.4,2.9
				c-0.6,1.9-2.1,2.8-2.7,1.8c-0.1-0.2-0.1-0.4-0.1-0.6c0-1,0.2-2,0.5-3c0.6-2,1.6-4,2.6-6c2.8-5.6,4.4-12,5.6-18.2
				c0.8-4.2,1.2-8.4,1.5-12.7c0.6-9,0.5-18.2-1.9-27.3c-1.3-5-3.1-9.9-5.3-14.6c-0.5-1-1-2.1-1.6-3.1
				C537.8,95.4,536.9,93.5,538.2,92.4z"/>
		</g>
	</g>
	<g>
		<defs>
			
				<rect id="SVGID_9_" x="529.9" y="77.1" transform="matrix(0.7568 -0.6537 0.6537 0.7568 77.3282 369.0971)" width="9.5" height="7"/>
		</defs>
		<clipPath id="SVGID_10_">
			<use xlink:href="#SVGID_9_"  style="overflow:visible;"/>
		</clipPath>
		<g class="st4">
			<defs>
				<rect id="SVGID_11_" x="379.5" y="-141.7" width="309.2" height="556.2"/>
			</defs>
			<clipPath id="SVGID_12_">
				<use xlink:href="#SVGID_11_"  style="overflow:visible;"/>
			</clipPath>
			<path class="st5" d="M533.9,77.2c-2.5,1.2-3.6,3.7-2.7,6c0.6,1.7,2.3,2.5,3.6,1.7c1.1-0.8,0.8-2.4,1.6-3.5c0.6-0.8,1.8-1.2,2-2.2
				c0.2-1.1-0.7-2.1-2-2.3C535.6,76.7,534.8,76.8,533.9,77.2z"/>
		</g>
	</g>
	<g>
		<defs>
			
				<rect id="SVGID_13_" x="514.8" y="1.6" transform="matrix(0.9989 -4.735814e-02 4.735814e-02 0.9989 -1.2047 25.3193)" width="37.9" height="73"/>
		</defs>
		<clipPath id="SVGID_14_">
			<use xlink:href="#SVGID_13_"  style="overflow:visible;"/>
		</clipPath>
		<g class="st6">
			<defs>
				<rect id="SVGID_15_" x="379.5" y="-141.7" width="309.2" height="556.2"/>
			</defs>
			<clipPath id="SVGID_16_">
				<use xlink:href="#SVGID_15_"  style="overflow:visible;"/>
			</clipPath>
			<path class="st7" d="M529.1,73.7c2.7-7.4,3.2-15.5,1.1-23.1c-1.3-4.7-3.5-9.2-5.6-13.7c-2.9-6.1-5.7-12.3-7.8-18.5
				c-1.7-5.1-2.9-10.2-3.6-15.6c1.2,0.1,2.3,0.4,3.4,1c1.3,0.7,2.4,1.8,3.2,3.1c1.1,7.1,2.9,14.1,5.4,20.9
				c2.2,5.9,4.9,11.7,8.6,16.7c2.3,3.2,5,6,7.7,9c2,2.2,4,4.4,6.7,5.6c1.3,0.5,2.6,1.2,3.8,1.2c0.8,0,1.6,0.2,1.5,1
				c0,0.4-0.4,0.6-0.8,0.9c-0.3,0.2-0.6,0.5-1,0.6c-0.6,0.3-1.2,0.4-1.8,0.6c-1.5,0.7-2.3,2.2-3.1,3.6c-0.8,1.3-1.6,2.5-2.8,3.4
				c-1.1,0.9-2.2,1.4-3.6,1.4c-1.6,0-3.1-1-4.7-0.9c-1.2,0.1-2.2,0.7-3,1.6c-0.6,0.7-1.1,1.7-2,1.9
				C530.3,74.7,529.5,74.3,529.1,73.7z"/>
		</g>
	</g>
	<g>
		<defs>
			
				<rect id="SVGID_17_" x="538.6" y="75.3" transform="matrix(0.9721 -0.2344 0.2344 0.9721 -2.8943 128.8097)" width="3.5" height="2.5"/>
		</defs>
		<clipPath id="SVGID_18_">
			<use xlink:href="#SVGID_17_"  style="overflow:visible;"/>
		</clipPath>
		<g class="st8">
			<defs>
				<rect id="SVGID_19_" x="379.5" y="-141.7" width="309.2" height="556.2"/>
			</defs>
			<clipPath id="SVGID_20_">
				<use xlink:href="#SVGID_19_"  style="overflow:visible;"/>
			</clipPath>
			<path class="st9" d="M539.6,75.8c1.1-0.6,2.1-0.4,2.2,0.3c0.1,0.4-0.3,0.8-0.7,1.1c-0.3,0.2-0.5,0.4-0.9,0.5
				c-0.4,0.1-0.7,0-1-0.2c-0.4-0.3-0.6-0.7-0.3-1.1C539.1,76.2,539.3,76,539.6,75.8z"/>
		</g>
	</g>
	<g>
		<defs>
			
				<rect id="SVGID_21_" x="517.1" y="2.5" transform="matrix(0.9989 -4.735813e-02 4.735813e-02 0.9989 -1.2279 25.3829)" width="35.8" height="72.3"/>
		</defs>
		<clipPath id="SVGID_22_">
			<use xlink:href="#SVGID_21_"  style="overflow:visible;"/>
		</clipPath>
		<g class="st10">
			<defs>
				<rect id="SVGID_23_" x="379.5" y="-141.7" width="309.2" height="556.2"/>
			</defs>
			<clipPath id="SVGID_24_">
				<use xlink:href="#SVGID_23_"  style="overflow:visible;"/>
			</clipPath>
			<path class="st11" d="M529.3,72.5c0.2-0.6,0.6-1.2,0.8-1.8c0.4-0.9,0.5-1.9,0.6-2.9c0.2-1.6,0.5-3.2,0.8-4.8
				c-0.2,4.2,4.5,6.8,8,4.5c5-3.3,1.2-10.3-3.6-15.8c-3.3-3.8-5.7-8.3-8-12.8c-3.1-6.3-5.8-12.7-8.2-19.2c-0.9-2.6-1.8-5.3-2.5-8
				c-0.7-2.7-1.2-5.4-1.6-8.1c0.6,0.1,1.1,0.3,1.6,0.6c1.3,0.8,2.3,2,2.6,3.5c1,7.1,2.8,14.1,5.4,20.9c2.2,5.8,5,11.4,8.9,16.4
				c2.6,3.3,5.5,6.3,8.3,9.4c1.6,1.8,3.3,3.6,5.5,4.5c1.5,0.6,3.2,0.9,4.7,1.4c0.5,0.2,1,0.4,1.2,0.9c0.2,0.7-0.4,1.3-1,1.8
				c-0.3,0.2-0.6,0.5-1,0.6c-0.6,0.3-1.2,0.4-1.8,0.6c-1.5,0.7-2.3,2.2-3.1,3.6c-0.7,1.3-1.6,2.6-2.8,3.4c-1.3,0.8-2.8,1-4.3,0.9
				c-1.3-0.1-2.6-0.6-3.9-0.3c-1.1,0.2-2.1,1-3,1.6c-0.4,0.3-0.9,0.6-1.3,0.9c-0.8,0.5-1.7,0.8-2.3,0.2
				C528.9,74,529,73.2,529.3,72.5z"/>
		</g>
	</g>
</g>
<g>
	<path class="st12" d="M13.4,182H0.9v-71.5c1.2,0,4.5,0,9.8-0.1c5.3-0.1,8.8-0.1,10.6-0.1c5,0,9.4,0.6,13.1,1.9
		c3.7,1.3,6.6,3,8.6,5.2c2,2.2,3.5,4.6,4.5,7.3c1,2.6,1.4,5.5,1.4,8.6c0,6.5-2.3,11.9-6.9,16.4c-4.6,4.5-11,6.7-19.2,6.7
		c-4.2,0-7.3-0.1-9.3-0.3V182z M22.4,122.1c-1.5,0-4.5,0.1-9,0.2v22c3.3,0.3,6.2,0.5,8.9,0.5c3.9,0,7.1-1,9.6-2.9
		c2.5-1.9,3.7-4.8,3.7-8.6C35.6,125.8,31.2,122.1,22.4,122.1z"/>
</g>
<g>
	<path class="st12" d="M99.6,182v-71.5h41.4v11.7h-28.8v17.8h25.7v11.7h-25.7v18.5h29.8V182H99.6z"/>
</g>
<g>
	<path class="st12" d="M298.2,182v-71.5h41.4v11.7h-28.8v17.8h25.7v11.7h-25.7v18.5h29.8V182H298.2z"/>
</g>
<g>
	<path class="st12" d="M449.6,165.7l4.8,9.4c-2.2,2.4-5.5,4.3-9.7,5.8c-4.2,1.5-8.6,2.2-13.2,2.2c-11,0-19.8-3.4-26.7-10.1
		c-6.8-6.7-10.2-15.7-10.2-26.8c0-10.7,3.2-19.5,9.7-26.4c6.5-6.9,15.4-10.4,26.9-10.4c9.2,0,16.4,2.4,21.8,7.3l-5.6,9.3
		c-4.8-3.2-10.2-4.8-16.1-4.8c-6.7,0-12.3,2.3-16.7,6.8c-4.4,4.6-6.6,10.7-6.6,18.3c0,7.4,2.3,13.5,6.9,18.1c4.6,4.7,10.5,7,17.8,7
		C439,171.4,444.7,169.5,449.6,165.7z"/>
</g>
<g>
	<path class="st12" d="M694.5,110.5v41.9c0,10.3-2.7,18-8.1,23.1c-5.4,5.1-12.2,7.7-20.3,7.7c-9.2,0-16.6-2.7-22.1-8.1
		c-5.5-5.4-8.3-13.2-8.3-23.3v-41.2h12.6V149c0,6.9,1.5,12.4,4.4,16.4c3,4,7.4,6,13.4,6c10.6,0,15.9-7.2,15.9-21.5v-39.3H694.5z"/>
</g>
<g>
	<path class="st12" d="M742.7,122.3v-11.7H797v8.7l-39.6,51.1H798V182h-57.4v-8.6l39.5-51.2H742.7z"/>
</g>
<g>
	<path class="st12" d="M211.9,182h-12.6v-71.5c1.5,0,5.4,0,11.6-0.1c6.2-0.1,9.6-0.1,10.2-0.1c17.3,0,25.9,7.4,25.9,22.1
		c0,5.5-1.4,10-4.2,13.4c-2.8,3.4-6,5.8-9.6,7l22.4,29.2h-15.2l-19.7-26.8h-8.8V182z M220.5,122.1c-1.2,0-4.1,0.1-8.6,0.2v21.2h8.2
		c3.9,0,7.1-1,9.8-2.9c2.6-1.9,3.9-4.6,3.9-8.1C233.7,125.6,229.3,122.1,220.5,122.1z"/>
</g>
<g>
	<path class="st12" d="M14.2,222.9l1.3,2c-0.6,0.8-1.5,1.4-2.5,1.9c-1,0.4-2.2,0.7-3.4,0.7c-2.5,0-4.4-0.7-5.9-2.2
		c-1.5-1.5-2.3-3.4-2.3-5.8c0-2.2,0.7-4.1,2.2-5.7s3.3-2.3,5.5-2.3c2.7,0,4.7,0.7,6,2l-1.3,2.1c-1.2-1.1-2.6-1.6-4.4-1.6
		c-1.4,0-2.7,0.5-3.7,1.5c-1,1-1.5,2.3-1.5,3.9c0,1.6,0.5,3,1.6,3.9c1.1,1,2.4,1.5,3.9,1.5C11.6,224.9,13.1,224.3,14.2,222.9z"/>
	<path class="st12" d="M30.1,227.1v-12.8h-8.3v12.8h-2.7v-15.3h13.8v15.3H30.1z"/>
	<path class="st12" d="M37.8,233.9v-22.1h2.7v1.8c0.5-0.6,1.3-1.2,2.2-1.5c0.9-0.4,1.9-0.6,3-0.6c2.2,0,3.9,0.7,5.2,2.2
		c1.3,1.4,1.9,3.3,1.9,5.6c0,2.4-0.7,4.3-2.2,5.9c-1.5,1.6-3.4,2.3-5.8,2.3c-1.8,0-3.3-0.4-4.3-1.1v7.5H37.8z M44.9,214
		c-1.8,0-3.3,0.7-4.4,2.1v7.6c1.2,0.8,2.5,1.2,4.1,1.2c1.6,0,2.9-0.5,3.9-1.6c1-1,1.4-2.4,1.4-4c0-1.6-0.4-2.9-1.3-3.8
		C47.7,214.5,46.5,214,44.9,214z"/>
	<path class="st12" d="M57.5,215l-0.7-2.2c1.5-0.9,3.2-1.4,5.1-1.4c2.1,0,3.6,0.5,4.5,1.6c0.9,1,1.4,2.6,1.4,4.7v9.4h-2.6v-2
		c-1.2,1.5-2.8,2.2-4.9,2.2c-1.4,0-2.5-0.4-3.4-1.3c-0.9-0.9-1.3-2-1.3-3.5c0-1.5,0.5-2.7,1.6-3.6s2.5-1.3,4.2-1.3
		c1.6,0,2.9,0.3,3.8,1c0-1.6-0.2-2.8-0.7-3.6c-0.5-0.8-1.4-1.2-2.8-1.2C60.4,213.9,58.9,214.3,57.5,215z M61.3,224.9
		c1.5,0,2.8-0.7,3.9-2V221c-1-0.7-2.1-1-3.4-1c-0.9,0-1.7,0.2-2.3,0.6c-0.6,0.4-1,1.1-1,1.9c0,0.7,0.2,1.3,0.7,1.8
		C59.7,224.7,60.4,224.9,61.3,224.9z"/>
	<path class="st12" d="M72.4,227.1v-15.3c0.4,0,1.2,0,2.4-0.1c1.3,0,2.3-0.1,3.1-0.1c4.4,0,6.6,1.3,6.6,3.9c0,0.9-0.3,1.7-0.9,2.3
		c-0.6,0.6-1.3,1-2.2,1.2v0.1c2.4,0.4,3.6,1.6,3.6,3.6c0,3-2.3,4.5-7,4.5c-0.7,0-1.7,0-3-0.1C73.7,227.2,72.8,227.1,72.4,227.1z
		 M78.1,213.9c-0.7,0-1.7,0-3,0.1v4.6h3.4c0.9,0,1.7-0.2,2.2-0.6c0.6-0.4,0.9-1,0.9-1.7C81.6,214.7,80.4,213.9,78.1,213.9z
		 M78.3,220.3h-3.3v4.7c1.6,0.1,2.7,0.1,3.1,0.1c2.6,0,3.9-0.8,3.9-2.5C82.1,221,80.9,220.3,78.3,220.3z"/>
	<path class="st12" d="M90.4,225.2c-1.5-1.5-2.3-3.4-2.3-5.7s0.8-4.2,2.3-5.7c1.5-1.5,3.5-2.3,5.9-2.3c2.4,0,4.4,0.8,5.9,2.3
		c1.5,1.5,2.3,3.4,2.3,5.7s-0.8,4.2-2.3,5.7c-1.5,1.5-3.5,2.3-5.9,2.3C93.9,227.5,91.9,226.7,90.4,225.2z M91,219.5
		c0,1.6,0.5,2.9,1.5,3.9c1,1,2.3,1.5,3.8,1.5c1.5,0,2.8-0.5,3.8-1.5c1-1,1.5-2.3,1.5-3.9c0-1.6-0.5-2.9-1.5-3.9
		c-1-1-2.3-1.5-3.8-1.5c-1.5,0-2.8,0.5-3.8,1.5C91.5,216.6,91,217.9,91,219.5z"/>
	<path class="st12" d="M119.9,211.8v15.3h-2.7v-6c-1.2,0.7-2.6,1.1-4.3,1.1c-3.6,0-5.4-2-5.4-5.9v-4.6h2.9v4.3
		c0,2.4,1.1,3.6,3.3,3.6c1.4,0,2.6-0.3,3.5-1v-7H119.9z"/>
	<path class="st12" d="M136,227.1v-6.5h-8.5v6.5h-2.7v-15.3h2.7v6.3h8.5v-6.3h2.7v15.3H136z"/>
	<path class="st12" d="M144.5,215l-0.7-2.2c1.5-0.9,3.2-1.4,5.1-1.4c2.1,0,3.6,0.5,4.5,1.6c0.9,1,1.4,2.6,1.4,4.7v9.4h-2.6v-2
		c-1.2,1.5-2.8,2.2-4.9,2.2c-1.4,0-2.5-0.4-3.4-1.3c-0.9-0.9-1.3-2-1.3-3.5c0-1.5,0.5-2.7,1.6-3.6s2.5-1.3,4.2-1.3
		c1.6,0,2.9,0.3,3.8,1c0-1.6-0.2-2.8-0.7-3.6c-0.5-0.8-1.4-1.2-2.8-1.2C147.4,213.9,145.9,214.3,144.5,215z M148.3,224.9
		c1.5,0,2.8-0.7,3.9-2V221c-1-0.7-2.1-1-3.4-1c-0.9,0-1.7,0.2-2.3,0.6c-0.6,0.4-1,1.1-1,1.9c0,0.7,0.2,1.3,0.7,1.8
		C146.7,224.7,147.4,224.9,148.3,224.9z"/>
	<path class="st12" d="M166.1,211.8h4.8v15.3h-2.7V222h-3l-3.7,5.1h-3.3l4.4-5.8c-0.9-0.2-1.7-0.7-2.3-1.5s-1-1.8-1-2.9
		c0-1.5,0.5-2.7,1.6-3.7C161.9,212.3,163.7,211.8,166.1,211.8z M162.1,217c0,0.7,0.3,1.4,0.9,1.8c0.6,0.5,1.2,0.7,2,0.7h3.1v-5.1
		h-2.5c-1.2,0-2.1,0.2-2.7,0.7C162.4,215.6,162.1,216.2,162.1,217z"/>
	<path class="st12" d="M195.2,222.9l1.3,2c-0.6,0.8-1.5,1.4-2.5,1.9c-1,0.4-2.2,0.7-3.4,0.7c-2.5,0-4.4-0.7-5.9-2.2
		c-1.5-1.5-2.3-3.4-2.3-5.8c0-2.2,0.7-4.1,2.2-5.7s3.3-2.3,5.5-2.3c2.7,0,4.7,0.7,6,2l-1.3,2.1c-1.2-1.1-2.6-1.6-4.4-1.6
		c-1.4,0-2.7,0.5-3.7,1.5c-1,1-1.5,2.3-1.5,3.9c0,1.6,0.5,3,1.6,3.9c1.1,1,2.4,1.5,3.9,1.5C192.6,224.9,194,224.3,195.2,222.9z"/>
	<path class="st12" d="M210.2,227.1v-12.6h-5.4l-0.2,2.6c-0.1,1.7-0.3,3.2-0.6,4.4c-0.3,1.2-0.6,2.2-0.9,3c-0.4,0.7-0.8,1.3-1.3,1.8
		c-0.5,0.4-1,0.7-1.5,0.9c-0.5,0.1-1.1,0.2-1.8,0.2l-0.2-2.7c0.3,0,0.5,0,0.8-0.1c0.3-0.1,0.6-0.3,0.9-0.7c0.3-0.3,0.6-0.8,0.9-1.4
		c0.3-0.6,0.5-1.4,0.7-2.4c0.2-1,0.4-2.2,0.4-3.6l0.3-4.8h10.7v15.3H210.2z"/>
	<path class="st12" d="M231.7,211.8l-6.1,15.3c-1.1,2.7-2.1,4.5-2.9,5.4s-1.8,1.4-3,1.4c-1,0-1.9-0.3-2.9-1l0.9-2.1
		c0.7,0.3,1.3,0.5,1.7,0.5c0.6,0,1.2-0.3,1.7-0.8c0.5-0.5,1-1.4,1.5-2.7l0.3-0.8l-7.4-15.3h3.3l4.5,9.7c0.1,0.2,0.4,1,0.9,2.3
		c0.2-0.7,0.4-1.5,0.7-2.3l3.5-9.7H231.7z"/>
	<path class="st12" d="M238.1,219.2l-5.5-7.4h3.4l5.2,7.4l-5.6,7.9h-3.3L238.1,219.2z M241.9,227.1v-15.3h2.7v15.3H241.9z
		 M254,211.8l-5.5,7.4l6,7.9H251l-5.7-7.9l5.3-7.4H254z"/>
	<path class="st12" d="M269.2,203l1.5,2.1c-0.5,0.7-1.2,1.3-2,1.5c-0.8,0.3-1.7,0.5-2.9,0.7s-2.1,0.5-3,0.9c-2.3,1-3.6,3.5-3.9,7.4
		h0.1c0.5-1.1,1.3-1.9,2.4-2.6c1.1-0.7,2.3-1,3.6-1c2.2,0,3.9,0.7,5.2,2.1c1.3,1.4,1.9,3.2,1.9,5.5c0,2.2-0.7,4-2.2,5.6
		c-1.5,1.5-3.4,2.3-5.6,2.3c-2.5,0-4.5-0.9-5.9-2.6c-1.5-1.7-2.2-4-2.2-7c0-6.6,1.9-10.8,5.7-12.4c0.9-0.4,1.9-0.7,3-0.9
		c1.1-0.2,1.9-0.4,2.6-0.6C268.2,204,268.7,203.6,269.2,203z M259.1,218.5c0,2,0.5,3.5,1.4,4.7c1,1.2,2.2,1.8,3.7,1.8
		c1.5,0,2.7-0.5,3.6-1.5c0.9-1,1.4-2.2,1.4-3.7c0-1.5-0.4-2.8-1.3-3.8s-2.1-1.4-3.6-1.4c-1.4,0-2.5,0.4-3.5,1.2
		C260,216.5,259.4,217.4,259.1,218.5z"/>
	<path class="st12" d="M276.9,215l-0.7-2.2c1.5-0.9,3.2-1.4,5.1-1.4c2.1,0,3.6,0.5,4.5,1.6c0.9,1,1.4,2.6,1.4,4.7v9.4h-2.6v-2
		c-1.2,1.5-2.8,2.2-4.9,2.2c-1.4,0-2.5-0.4-3.4-1.3c-0.9-0.9-1.3-2-1.3-3.5c0-1.5,0.5-2.7,1.6-3.6s2.5-1.3,4.2-1.3
		c1.6,0,2.9,0.3,3.8,1c0-1.6-0.2-2.8-0.7-3.6c-0.5-0.8-1.4-1.2-2.8-1.2C279.8,213.9,278.4,214.3,276.9,215z M280.7,224.9
		c1.5,0,2.8-0.7,3.9-2V221c-1-0.7-2.1-1-3.4-1c-0.9,0-1.7,0.2-2.3,0.6c-0.6,0.4-1,1.1-1,1.9c0,0.7,0.2,1.3,0.7,1.8
		C279.2,224.7,279.8,224.9,280.7,224.9z"/>
	<path class="st12" d="M297.5,214.5v-2.7h14v2.7h-5.6v12.6h-2.7v-12.6H297.5z"/>
	<path class="st12" d="M315.2,225.2c-1.5-1.5-2.3-3.4-2.3-5.7s0.8-4.2,2.3-5.7c1.5-1.5,3.5-2.3,5.9-2.3c2.4,0,4.4,0.8,5.9,2.3
		c1.5,1.5,2.3,3.4,2.3,5.7s-0.8,4.2-2.3,5.7c-1.5,1.5-3.5,2.3-5.9,2.3C318.6,227.5,316.7,226.7,315.2,225.2z M315.8,219.5
		c0,1.6,0.5,2.9,1.5,3.9c1,1,2.3,1.5,3.8,1.5c1.5,0,2.8-0.5,3.8-1.5c1-1,1.5-2.3,1.5-3.9c0-1.6-0.5-2.9-1.5-3.9
		c-1-1-2.3-1.5-3.8-1.5c-1.5,0-2.8,0.5-3.8,1.5C316.3,216.6,315.8,217.9,315.8,219.5z"/>
	<path class="st12" d="M344.2,227.1v-12.8h-8.3v12.8h-2.7v-15.3h13.8v15.3H344.2z"/>
	<path class="st12" d="M353.1,225.2c-1.5-1.5-2.3-3.4-2.3-5.7s0.8-4.2,2.3-5.7c1.5-1.5,3.5-2.3,5.9-2.3c2.4,0,4.4,0.8,5.9,2.3
		c1.5,1.5,2.3,3.4,2.3,5.7s-0.8,4.2-2.3,5.7c-1.5,1.5-3.5,2.3-5.9,2.3C356.6,227.5,354.6,226.7,353.1,225.2z M353.7,219.5
		c0,1.6,0.5,2.9,1.5,3.9c1,1,2.3,1.5,3.8,1.5c1.5,0,2.8-0.5,3.8-1.5c1-1,1.5-2.3,1.5-3.9c0-1.6-0.5-2.9-1.5-3.9
		c-1-1-2.3-1.5-3.8-1.5c-1.5,0-2.8,0.5-3.8,1.5C354.2,216.6,353.7,217.9,353.7,219.5z"/>
	<path class="st12" d="M371.1,227.1v-15.3c0.4,0,1.2,0,2.4-0.1c1.3,0,2.3-0.1,3.1-0.1c4.4,0,6.6,1.3,6.6,3.9c0,0.9-0.3,1.7-0.9,2.3
		c-0.6,0.6-1.3,1-2.2,1.2v0.1c2.4,0.4,3.6,1.6,3.6,3.6c0,3-2.3,4.5-7,4.5c-0.7,0-1.7,0-3-0.1C372.4,227.2,371.5,227.1,371.1,227.1z
		 M376.8,213.9c-0.7,0-1.7,0-3,0.1v4.6h3.4c0.9,0,1.7-0.2,2.2-0.6c0.6-0.4,0.9-1,0.9-1.7C380.3,214.7,379.2,213.9,376.8,213.9z
		 M377.1,220.3h-3.3v4.7c1.6,0.1,2.7,0.1,3.1,0.1c2.6,0,3.9-0.8,3.9-2.5C380.9,221,379.6,220.3,377.1,220.3z"/>
	<path class="st12" d="M387.9,227.1v-15.3h2.7v4.6h2.5c2.2,0,3.7,0.5,4.7,1.5c0.9,1,1.4,2.3,1.4,3.8s-0.5,2.8-1.5,3.9
		c-1,1-2.6,1.6-4.9,1.6H387.9z M392.6,219h-2v5.6h2c1.3,0,2.3-0.2,2.8-0.7s0.9-1.2,0.9-2.1C396.3,219.9,395.1,219,392.6,219z
		 M402.1,227.1v-15.3h2.7v15.3H402.1z"/>
	<path class="st12" d="M423.4,211.8l-5.5,7.4l5.8,7.9h-3.3l-4.5-6.2l-4.6,6.2h-3.2l5.8-7.8l-5.4-7.5h3.3l4.2,5.8l4.2-5.8H423.4z"/>
</g>
<g>
	<path class="st12" d="M612.5,225.2c-1.5-1.5-2.3-3.4-2.3-5.7s0.8-4.2,2.3-5.7c1.5-1.5,3.5-2.3,5.9-2.3s4.4,0.8,5.9,2.3
		c1.5,1.5,2.3,3.4,2.3,5.7s-0.8,4.2-2.3,5.7c-1.5,1.5-3.5,2.3-5.9,2.3S614,226.7,612.5,225.2z M613.1,219.5c0,1.6,0.5,2.9,1.5,3.9
		c1,1,2.3,1.5,3.8,1.5s2.8-0.5,3.8-1.5c1-1,1.5-2.3,1.5-3.9c0-1.6-0.5-2.9-1.5-3.9c-1-1-2.3-1.5-3.8-1.5c-1.5,0-2.8,0.5-3.8,1.5
		C613.6,216.6,613.1,217.9,613.1,219.5z"/>
	<path class="st12" d="M630.4,233.9v-22.1h2.7v1.8c0.5-0.6,1.3-1.2,2.2-1.5c0.9-0.4,1.9-0.6,3-0.6c2.2,0,3.9,0.7,5.2,2.2
		c1.3,1.4,1.9,3.3,1.9,5.6c0,2.4-0.7,4.3-2.2,5.9c-1.5,1.6-3.4,2.3-5.8,2.3c-1.8,0-3.3-0.4-4.3-1.1v7.5H630.4z M637.6,214
		c-1.8,0-3.3,0.7-4.4,2.1v7.6c1.2,0.8,2.5,1.2,4.1,1.2c1.6,0,2.9-0.5,3.9-1.6c1-1,1.4-2.4,1.4-4c0-1.6-0.4-2.9-1.3-3.8
		C640.4,214.5,639.1,214,637.6,214z"/>
	<path class="st12" d="M649.4,227.1v-15.3h9.7v2.6h-7v12.8H649.4z"/>
	<path class="st12" d="M662.5,215l-0.7-2.2c1.5-0.9,3.2-1.4,5.1-1.4c2.1,0,3.6,0.5,4.5,1.6c0.9,1,1.4,2.6,1.4,4.7v9.4h-2.6v-2
		c-1.2,1.5-2.8,2.2-4.9,2.2c-1.4,0-2.5-0.4-3.4-1.3c-0.9-0.9-1.3-2-1.3-3.5c0-1.5,0.5-2.7,1.6-3.6c1.1-0.9,2.5-1.3,4.2-1.3
		c1.6,0,2.9,0.3,3.8,1c0-1.6-0.2-2.8-0.7-3.6c-0.5-0.8-1.4-1.2-2.8-1.2C665.3,213.9,663.9,214.3,662.5,215z M666.3,224.9
		c1.5,0,2.8-0.7,3.9-2V221c-1-0.7-2.1-1-3.4-1c-0.9,0-1.7,0.2-2.3,0.6c-0.6,0.4-1,1.1-1,1.9c0,0.7,0.2,1.3,0.7,1.8
		C664.7,224.7,665.4,224.9,666.3,224.9z"/>
	<path class="st12" d="M688.6,227.1v-6.5h-8.5v6.5h-2.7v-15.3h2.7v6.3h8.5v-6.3h2.7v15.3H688.6z"/>
	<path class="st12" d="M699,227.1h-2.7v-15.3h2.7v11.4l8.8-11.4h2.7v15.3h-2.7v-11.4L699,227.1z"/>
	<path class="st12" d="M720.5,227.5c-1.2,0-2.4-0.2-3.7-0.6c-1.3-0.4-2.2-0.9-2.7-1.5l1.4-2c0.6,0.5,1.3,0.9,2.2,1.2
		c0.8,0.3,1.6,0.5,2.3,0.5c1.2,0,2.1-0.2,2.9-0.7s1.1-1.1,1.1-1.8c0-0.6-0.3-1.1-0.8-1.5c-0.5-0.3-1.3-0.5-2.2-0.5h-2.6v-2.2h2.4
		c0.8,0,1.4-0.2,1.9-0.6c0.5-0.4,0.7-0.9,0.7-1.5c0-0.7-0.3-1.2-0.9-1.6c-0.6-0.4-1.4-0.6-2.4-0.6c-1.6,0-3.2,0.6-4.6,1.7l-1.1-2.1
		c0.6-0.6,1.5-1.1,2.6-1.5c1.1-0.4,2.3-0.5,3.5-0.5c1.8,0,3.3,0.4,4.3,1.1c1,0.7,1.5,1.7,1.5,3c0,1.8-0.9,3-2.7,3.6v0.1
		c1,0.1,1.8,0.5,2.4,1.2c0.6,0.7,0.8,1.5,0.8,2.4c0,1.4-0.6,2.5-1.8,3.4C724,227.1,722.5,227.5,720.5,227.5z"/>
	<path class="st12" d="M732,215l-0.7-2.2c1.5-0.9,3.2-1.4,5.1-1.4c2.1,0,3.6,0.5,4.5,1.6c0.9,1,1.4,2.6,1.4,4.7v9.4h-2.6v-2
		c-1.2,1.5-2.8,2.2-4.9,2.2c-1.4,0-2.5-0.4-3.4-1.3c-0.9-0.9-1.3-2-1.3-3.5c0-1.5,0.5-2.7,1.6-3.6c1.1-0.9,2.5-1.3,4.2-1.3
		c1.6,0,2.9,0.3,3.8,1c0-1.6-0.2-2.8-0.7-3.6c-0.5-0.8-1.4-1.2-2.8-1.2C734.8,213.9,733.4,214.3,732,215z M735.8,224.9
		c1.5,0,2.8-0.7,3.9-2V221c-1-0.7-2.1-1-3.4-1c-0.9,0-1.7,0.2-2.3,0.6c-0.6,0.4-1,1.1-1,1.9c0,0.7,0.2,1.3,0.7,1.8
		C734.2,224.7,734.9,224.9,735.8,224.9z"/>
	<path class="st12" d="M746.8,227.1v-15.3h2.7v12.8h8.2v-12.8h2.7v12.8h2.6v6.3h-2.6v-3.7H746.8z"/>
	<path class="st12" d="M768.7,227.1H766v-15.3h2.7v11.4l8.8-11.4h2.7v15.3h-2.7v-11.4L768.7,227.1z"/>
	<path class="st12" d="M787.9,227.1h-2.7v-15.3h2.7v11.4l8.8-11.4h2.7v15.3h-2.7v-11.4L787.9,227.1z M787.4,204h2.6
		c0.1,1.8,1,2.7,2.6,2.7c1.5,0,2.3-0.9,2.5-2.7h2.6c0,1.4-0.5,2.5-1.4,3.4c-0.9,0.9-2.1,1.4-3.6,1.4c-1.6,0-2.9-0.4-3.8-1.3
		C787.8,206.5,787.4,205.4,787.4,204z"/>
</g>
</svg>
