<svg id="Layer_1" data-name="Layer 1" xmlns="http://www.w3.org/2000/svg" viewBox="0 0 1117.51 385"><defs><style>.cls-1{fill:#c1272d;}.cls-2{font-size:46.01px;font-family:SegoeScript, Segoe Script;}.cls-3{fill:#434343;}</style></defs><title>MT_logo_final</title><polygon class="cls-1" points="294.15 0 216.15 80.96 138.15 0 0 0 0 385 123.2 385 160.13 385 160.13 234.95 69.91 234.95 69.91 145.69 361.91 145.69 361.91 234.95 271.69 234.95 271.69 385 309.1 385 432.3 385 432.3 0 294.15 0"/><text class="cls-2" transform="translate(481.77 348.18)">Excellence begins with us</text><rect x="480.75" y="288.5" width="626" height="4"/><polygon class="cls-3" points="586.17 99.83 586.17 122 649.68 122.13 649.68 99.95 586.17 99.83"/><path class="cls-3" d="M498.22,79.92V122H470V33.8h29.36l20.16,42.59L539.68,33.8H569V122H540.81V79.92L528.47,106h-17.9Z"/><path class="cls-3" d="M693.27,91.51V122h-29V33.8h34.9c23.44,0,38.94,8.94,38.94,28.85,0,11.72-5.42,19.66-14.49,24.19L743.8,122H713.18L698.69,91.51Zm6.93-21.17c5.92,0,9.33-2.14,9.33-7.69S706.12,55,700.2,55h-6.93V70.34Z"/><path class="cls-3" d="M784,33.8V122H755V33.8Z"/><path class="cls-3" d="M835,122H801.63V33.8H835c29,0,46.62,16.13,46.62,44.1S864,122,835,122Zm-4.41-23.18h4.91c9.83,0,16.89-5.67,16.89-20.92S845.35,57,835.52,57h-4.91Z"/><path class="cls-3" d="M924.48,33.8V122h-29V33.8Z"/><path class="cls-3" d="M994.41,108.39H969.59L966.18,122H935.69l27.47-88.2H1001l27.47,88.2H997.94ZM975.26,86.47h13.6L982.06,60Z"/><path class="cls-3" d="M1039.13,33.8h28.48L1089.29,76V33.8h28.22V122H1089l-21.67-42.21V122h-28.23Z"/><polygon class="cls-3" points="586.2 56 586.2 55.97 649.3 55.97 649.3 33.8 586.17 33.8 586.17 56 586.2 56"/><polygon class="cls-3" points="649.39 65.68 591.76 65.68 586.33 65.68 586.17 65.68 586.17 87.85 649.39 87.85 649.39 65.68"/><path class="cls-3" d="M495.46,183H472V159.8h75.86V183H524.44v65h-29Z"/><rect class="cls-3" x="558.58" y="225.82" width="63.26" height="22.18"/><polygon class="cls-3" points="621.71 159.8 558.58 159.8 558.58 182.49 621.71 181.97 621.71 159.8"/><rect class="cls-3" x="558.58" y="191.68" width="63.22" height="22.18"/><path class="cls-3" d="M664.93,205.92V248H636.7V159.8h29.36l20.16,42.59,20.17-42.59h29.36V248H707.52V205.92L695.17,232H677.28Z"/><path class="cls-3" d="M787.9,221h-6v27h-29V159.8h35c22.56,0,37.81,9.57,37.81,30.62S810.46,221,787.9,221ZM787,181.72h-5.16v17.39H787c5.8,0,9.45-2.27,9.45-8.69S792.82,181.72,787,181.72Z"/><path class="cls-3" d="M878.25,158.28c27.09,0,44,19.28,44,45.62s-16.88,45.61-44,45.61-44-19.28-44-45.61S851.15,158.28,878.25,158.28Zm0,67.8c9.2,0,14.74-8.32,14.74-22.18s-5.54-22.18-14.74-22.18S863.5,190,863.5,203.9,869.05,226.08,878.25,226.08Z"/></svg>