<svg height="384pt" viewBox="0 0 384 384" width="384pt" xmlns="http://www.w3.org/2000/svg"><path d="m192 0c-70.898438 0-132.898438 38.699219-166.199219 96l-1.800781 3.199219c-15.300781 27.5-24 59.199219-24 92.800781s8.699219 65.300781 24 92.800781l1.800781 3.199219c33.199219 57.300781 95.300781 96 166.199219 96 100.5 0 183.101562-77.601562 191.300781-176v-32c-8.199219-98.398438-90.800781-176-191.300781-176zm-63.101562 45c-8.398438 14.300781-15.398438 31.5-20.796876 51h-43.800781c16.699219-22.101562 38.800781-39.898438 64.597657-51zm-83.5 211c-8.597657-19.601562-13.398438-41.199219-13.398438-64s4.800781-44.398438 13.5-64h55.601562c-3.300781 19.898438-5.101562 41.300781-5.101562 64s1.800781 44.101562 5.101562 64zm18.902343 32h43.800781c5.398438 19.5 12.398438 36.699219 20.796876 51-25.796876-11.101562-47.898438-28.898438-64.597657-51zm127.699219 64c-18.101562 0-37.398438-24.699219-50-64h100c-12.601562 39.300781-31.898438 64-50 64zm-58.199219-96c-3.699219-19.398438-5.800781-41-5.800781-64s2.101562-44.601562 5.800781-64h74.199219v-32h-66c12.601562-39.300781 32-64 50-64 28.398438 0 60 60.601562 63.601562 144h-95.601562v32h95.601562c-.703124 17.101562-2.601562 33.199219-5.5 48zm121.300781 83c18.5-31.601562 30.597657-77.5 32.597657-131h63.5c-5.898438 58.898438-43.800781 108.5-96.097657 131zm32.597657-163c-2-53.398438-14-99.398438-32.597657-131 52.296876 22.5 90.199219 72.101562 96.097657 131zm0 0"/></svg>