<?xml version="1.0" encoding="utf-8"?>
<!-- Generator: Adobe Illustrator 23.0.0, SVG Export Plug-In . SVG Version: 6.00 Build 0)  -->
<svg version="1.1" id="Layer_1" xmlns="http://www.w3.org/2000/svg" xmlns:xlink="http://www.w3.org/1999/xlink" x="0px" y="0px"
	 viewBox="0 0 512 512" style="enable-background:new 0 0 512 512;" xml:space="preserve">
<style type="text/css">
	.st0{fill:#151515;}
	.st1{fill:#C1272D;}
</style>
<title>010 - Idea</title>
<desc>Created with Sketch.</desc>
<g id="Page-1">
	<g transform="translate(-1.000000, -1.000000)">
		<path id="Shape" class="st0" d="M13.6,320.1c2.8,2,5.8,3.7,8.9,5.1c3.7,1.9,9.9,5,10.3,7.3c0.5,2.9,0.2,5.9-1,8.6
			c-1.3,2.7-2.6,5.1-3.8,7.1c-3.1,5.5-8.4,14.8-0.5,21.2c1.8,1.7,5,4.2,7.9,6.4c-2.1,3.7-3.1,8-2.8,12.3c0.5,3.4,2.3,6.4,5.1,8.4
			c1.9,1.3,3.9,2.5,5.9,3.6c5,2.9,7,4.2,7.7,6.9c0.5,3.4,0.2,6.9-0.9,10.2c-0.5,2.3-1,4.6-1.3,6.8c-0.8,7.8,0.1,15.6,2.8,23
			c3.8,13.6,16.1,23,30.2,23.3c2.4,0,4.7-0.3,7-0.7c24.4-5.8,48.4-13,71.9-21.5c19.2,11.3,31.4,45.6,34.5,58.5
			c0.9,3.8,4.4,6.5,8.3,6.5l214.2-0.6c2.7,0,5.3-1.3,6.9-3.5s2.1-5,1.3-7.6c-2.1-5.8-5-11.2-8.6-16.2c-2-2.9-3.9-6-5.5-9.2
			c-3.9-7.8-7.1-15.9-9.6-24.3c-4.8-16.3-8.2-33-10-49.9c-0.3-3.1-2.2-5.8-5.1-7.1c-2.9-1.2-6.2-0.8-8.6,1.1c-2.5,1.9-3.7,5-3.2,8.1
			c2,17.9,5.5,35.6,10.6,52.9c2.8,9.2,6.3,18.1,10.6,26.7c1.9,3.9,4.2,7.6,6.6,11.2l0.6,0.9l-193.5,0.6c-5.7-20.2-15.9-38.9-30-54.5
			l7.7-2.7c5.7-2,10-3.5,12.2-4.2c36.6-11.6,54.8-28.2,54.3-49.5c0-2.3-0.9-4.5-2.6-6c-1.6-1.6-3.9-2.4-6.1-2.3
			c-4.7,0.1-8.4,4-8.3,8.7c0.2,8.8-7,21.6-42.5,32.8c-2.3,0.7-6.8,2.3-12.7,4.4c-6.3,2.2-14.4,5-23.3,8.1h-0.1
			c-24,8.8-48.5,16.2-73.4,22.2c-8,1.5-15.7-3.5-17.6-11.4c-1.8-4.9-2.5-10.1-2-15.2c0.2-1.8,0.6-3.6,1-5.4c1.7-5.9,2-12.1,0.7-18.2
			c-2.5-7.8-8.3-14.2-15.8-17.4l-1.8-1c0.9-1.9,2-3.6,3.3-5.3c1.4-1.8,2.1-4.1,1.8-6.4s-1.5-4.4-3.4-5.7c-2-1.5-6.9-5.1-10.4-8
			c0.4-0.7,0.9-1.6,1.3-2.3c1.3-2.3,2.9-5.1,4.4-8.2c2.7-6,3.5-12.6,2.3-19.1c-2-10.4-12-15.5-19.3-19.2c-2.4-1.2-4.8-2.5-7-4.1
			c-1.8-1.2-3.5-2.6-5.1-4.2c0-1.3,1.4-4.4,7.9-12.3c15.2-20,28.3-41.3,39-63.8c2-3.5,3.1-7.5,3.3-11.5c-0.9-8.6-5.4-16.4-12.5-21.3
			c-3.5-3.2-6.7-6.2-7.1-8.9c0.1-2,0.5-4,1.3-5.9c1.4-3.7,3-7.2,4.6-10.8c3.5-7.2,6.3-14.8,8.3-22.5l0.9-3.6
			c1.8-8.5,4.1-16.9,7-25.2c6.7-18.6,17.1-35.6,30.6-50c16.3-17.3,42-29.5,76.5-36.3c26.4-5.8,53.1-9.6,80.1-11.5
			c13.4-0.7,26.9,0,40.2,2.3c4.6,0.7,8.9-2.4,9.7-7s-2.2-8.9-6.8-9.8c-14.5-2.5-29.3-3.3-44-2.5c-27.8,1.9-55.4,5.9-82.5,11.8
			c-38.5,7.7-66.4,21.2-85.5,41.3c-15.1,16-26.7,35-34.2,55.7c-3.1,8.9-5.6,18-7.6,27.2l-0.9,3.6c-1.8,6.7-4.3,13.2-7.3,19.4
			c-1.7,3.9-3.5,7.8-5,11.8c-2,4.5-2.7,9.4-2.3,14.3c1.7,7.6,6.1,14.4,12.4,19.1c4.2,3.8,6.9,6.5,6.9,8.9c-0.3,1.3-0.8,2.5-1.5,3.7
			c-10,21.5-22.6,41.9-37.2,60.7c-6.2,7.5-12.6,16.3-11.3,25C3,310.9,7.4,316.6,13.6,320.1z"/>
		<path class="st0" d="M96.3,152.8l0.9-3.8c1.5-7.1,3.4-14.1,5.7-21c5.1-14.2,13.1-27.3,23.4-38.4c11.1-10.4,24.6-17.9,39.3-21.6
			c3-0.8,5.3-3.2,6-6.2c0.7-3-0.2-6.2-2.5-8.3s-5.5-2.8-8.4-1.8c-17.6,4.6-33.7,13.6-46.8,26.2c-11.9,12.8-21.1,27.8-27,44.2
			c-2.6,7.6-4.7,15.3-6.3,23.1l-0.9,3.7c-1.1,4.6,1.8,9.2,6.4,10.2c0.6,0.1,1.3,0.2,1.9,0.2C92,159.4,95.4,156.7,96.3,152.8z"/>
		<circle id="Oval" class="st0" cx="77.8" cy="180.2" r="8.5"/>
		<path class="st1" d="M231.4,173.5c-0.6,29.1,9.7,57.4,28.8,79.3c6,6.3,12.6,12,19.6,17.1c12.5,9.7,24.3,18.9,27.5,31.7
			c-9.7,3.9-16.2,13.3-16.2,23.8v17.1c0,10.8,6.9,20.4,17.1,24v1.6c0,18.9,15.3,34.1,34.1,34.1c18.9,0,34.1-15.3,34.1-34.1v-1.6
			c10.2-3.6,17-13.2,17.1-24v-17.1c0-10.5-6.5-19.9-16.2-23.8c3.1-12.8,15-22.1,27.5-31.7c7-5.1,13.6-10.8,19.6-17.1
			c19.1-21.9,29.4-50.2,28.9-79.3C453,112,403.8,62,342.3,60.7C280.9,62,231.6,112,231.4,173.5z M316.7,188.7h-8.5
			c-4.7,0-8.5-3.8-8.5-8.5s3.8-8.5,8.5-8.5s8.5,3.8,8.5,8.5V188.7z M350.9,299.7h-17.1v-93.9h17.1V299.7z M342.3,385
			c-9.4,0-17.1-7.6-17.1-17.1h34.1C359.4,377.4,351.8,385,342.3,385z M376.5,342.3c0,4.7-3.8,8.5-8.5,8.5h-51.2
			c-4.7,0-8.5-3.8-8.5-8.5v-17.1c0-4.7,3.8-8.5,8.5-8.5H368c4.7,0,8.5,3.8,8.5,8.5V342.3z M436.2,173.7c0.5,24.8-8.2,48.9-24.4,67.6
			c-5.4,5.5-11.2,10.5-17.4,15c-10.1,7-19,15.5-26.5,25.3v-75.7h8.5c14.1,0,25.6-11.5,25.6-25.6s-11.5-25.6-25.6-25.6
			s-25.6,11.5-25.6,25.6v8.5h-17.1v-8.5c0-14.1-11.5-25.6-25.6-25.6s-25.6,11.5-25.6,25.6s11.5,25.6,25.6,25.6h8.5v75.7
			c-7.5-9.7-16.4-18.2-26.4-25.2c-6.2-4.5-12-9.5-17.4-15c-16.3-18.7-25-42.8-24.5-67.6c0.9-52,43.8-95.9,93.9-95.9
			S435.4,121.7,436.2,173.7z M367.9,188.7v-8.5c0-4.7,3.8-8.5,8.5-8.5s8.5,3.8,8.5,8.5s-3.8,8.5-8.5,8.5H367.9z"/>
		<path class="st1" d="M478.9,180.2h25.6c4.7,0,8.5-3.8,8.5-8.5s-3.8-8.5-8.5-8.5h-25.6c-4.7,0-8.5,3.8-8.5,8.5
			C470.3,176.4,474.2,180.2,478.9,180.2z"/>
		<path class="st1" d="M438.9,83.7c2.3,0,4.4-0.9,6-2.5L463,63.1c2.2-2.1,3.1-5.3,2.3-8.3c-0.8-3-3.1-5.3-6.1-6.1s-6.2,0.1-8.3,2.3
			l-18.1,18.1c-2.4,2.4-3.2,6.1-1.9,9.3C432.3,81.6,435.4,83.7,438.9,83.7z"/>
		<path class="st1" d="M342.3,43.7c4.7,0,8.5-3.8,8.5-8.5V9.5c0-4.7-3.8-8.5-8.5-8.5s-8.5,3.8-8.5,8.5v25.6
			C333.8,39.8,337.6,43.7,342.3,43.7z"/>
		<path class="st1" d="M251.8,81.2c1.6-1.6,2.5-3.8,2.5-6s-0.9-4.4-2.5-6L233.7,51c-2.1-2.2-5.3-3.1-8.3-2.3s-5.3,3.1-6.1,6.1
			s0.1,6.2,2.3,8.3l18.1,18.1c1.6,1.6,3.8,2.5,6,2.5C248.1,83.7,250.2,82.8,251.8,81.2z"/>
		<path class="st1" d="M180.2,163.1c-4.7,0-8.5,3.8-8.5,8.5s3.8,8.5,8.5,8.5h25.6c4.7,0,8.5-3.8,8.5-8.5s-3.8-8.5-8.5-8.5H180.2z"/>
	</g>
</g>
</svg>
