<svg height="512pt" viewBox="0 0 512 512.01587" width="512pt" xmlns="http://www.w3.org/2000/svg"><path d="m16.808594 93.882812h17.332031v28.226563c-10.054687 4.800781-15.8125 15.589844-14.199219 26.617187l12.1875 85.332032c1.046875 6.886718 4.855469 13.050781 10.546875 17.066406v111.035156l-4.15625 1.042969c-7.597656 1.886719-12.925781 8.71875-12.910156 16.546875v55.464844c0 2.261718-.898437 4.425781-2.492187 6.027344l-6.042969 6.03125c-5.484375 5.453124-8.554688 12.875-8.53125 20.609374v18.53125c0 14.140626 11.460937 25.601563 25.597656 25.601563h59.734375c9.425781 0 17.066406-7.640625 17.066406-17.066406v-13.492188c.007813-4.546875-1.804687-8.90625-5.035156-12.109375l-5.972656-5.972656c-1.375-1.375-1.375-3.605469 0-4.984375 8.042968-8.050781 8.042968-21.09375 0-29.148437-1.375-1.375-1.375-3.605469 0-4.984376 8.042968-8.050781 8.042968-21.097656 0-29.148437-1.378906-1.378906-1.378906-3.613281 0-4.992187l5.972656-5.972657c3.261719-3.234375 5.078125-7.644531 5.035156-12.238281v-4.957031c0-9.425781-7.640625-17.066407-17.066406-17.066407v-98.757812c5.695312-4.011719 9.503906-10.175781 10.546875-17.066406l12.183594-85.332032c1.617187-11.027343-4.140625-21.816406-14.199219-26.617187v-26.671875c9.679688.679688 19.628906 1.507812 29.109375 2.292969 7.476563.613281 14.710937 1.222656 21.332031 1.707031 6.152344-.082031 12.203125-1.605469 17.65625-4.453125l13.371094 6.390625c2.316406 1.101562 5.003906 1.101562 7.324219 0l12.695312-5.972656 12.800781 9.300781c2.015626 1.460937 4.566407 1.96875 6.988282 1.390625l13.96875-3.320312 14.394531 7.484374c.472656.25.972656.449219 1.488281.597657.664063.203125 14.25 4.265625 27.910156 7.109375l.164063 89.316406c.003906 5.921875 2.074219 11.660156 5.859375 16.214844l37.070312 44.464844c.558594.667968 1.007813 1.421874 1.332032 2.230468l15.265625 38.152344c.820312 2.054688 1.910156 3.996094 3.242187 5.765625l20.914063 27.886719c1.070312 1.425781 1.648437 3.160156 1.648437 4.941406v147.925781c.015625 9.472657 7.691406 17.144531 17.160156 17.152344h110.746094c9.46875-.007813 17.144532-7.679687 17.160156-17.152344v-460.644531c-.019531-14.167969-11.5-25.652344-25.667968-25.667969l-152.082032.109375-26.878906-8.132812c-4.410156-1.132813-9.089844-.425782-12.972656 1.953125l-21.714844 12.484375c-.164062.105468-.332031.199218-.488281.308594-6.800781 4.621093-9.394531 13.402343-6.195313 20.976562l15.359376 33.277344v2.5625c-36.1875-15.753906-91.40625-33.425782-178.960938-37.164063v-17.84375c0-9.425781-7.640625-17.066406-17.066406-17.066406h-34.132813c-9.425781 0-17.066406 7.640625-17.066406 17.066406v17.066407h-17.332031c-9.273438.011718-16.792969 7.527343-16.8007815 16.804687v26.128906c.0078125 9.273438 7.5273435 16.792969 16.8007815 16.800781zm42.933594 162.132813h17.066406v97.613281l-17.066406 4.265625zm28.097656 151.109375c1.378906 1.375 1.378906 3.605469 0 4.984375-8.039063 8.050781-8.039063 21.09375 0 29.148437 1.378906 1.375 1.378906 3.605469 0 4.984376-8.042969 8.046874-8.042969 21.09375 0 29.140624l6.035156 6.074219v13.492188h-59.734375c-4.710937 0-8.53125-3.820313-8.53125-8.535157v-18.53125c-.015625-3.203124 1.257813-6.277343 3.53125-8.535156l6.050781-6.050781c4.804688-4.789063 7.496094-11.296875 7.484375-18.082031v-55.464844l51.199219-12.800781v5.027343l-5.972656 5.972657c-8.042969 8.050781-8.042969 21.097656 0 29.148437zm-.3125-175.523438c-.621094 4.207032-4.222656 7.328126-8.476563 7.347657h-21.554687c-4.25-.019531-7.851563-3.140625-8.472656-7.347657l-12.1875-85.28125c-.359376-2.457031.371093-4.953124 2-6.828124 1.625-1.878907 3.992187-2.953126 6.476562-2.941407h45.925781c2.480469-.011719 4.84375 1.0625 6.472657 2.9375 1.628906 1.875 2.359374 4.367188 2 6.824219zm-2.1875-112.117187h-34.132813v-25.601563h17.066407c5.121093 0 10.890624.195313 17.066406.503907zm217.492187-102.511719 26.929688 8.148438c1.339843.324218 2.714843.492187 4.097656.496094h152.480469c4.75.003906 8.597656 3.851562 8.601562 8.601562l-.09375 460.730469-110.839844-.085938v-147.925781c-.011718-5.472656-1.785156-10.796875-5.058593-15.179688l-20.910157-27.886718c-.4375-.578125-.796874-1.210938-1.066406-1.886719l-15.257812-38.125c-.976563-2.476563-2.34375-4.78125-4.050782-6.828125l-37.078124-44.492188c-1.230469-1.476562-1.90625-3.335937-1.910157-5.257812v-104.867188h17.066407c1.324218.003907 2.628906-.304687 3.8125-.894531l28.613281-14.320312 18.773437 18.773437v19.484375l-15.632812 23.449219c-2.257813 3.382812-1.8125 7.890625 1.066406 10.769531l17.066406 17.066407c3.347656 3.234374 8.671875 3.1875 11.960938-.105469 3.292968-3.292969 3.339844-8.613281.105468-11.960938l-12.117187-12.117187 13.183594-19.78125c.9375-1.410156 1.4375-3.066406 1.433593-4.761719v-20.324219l24.984376-12.496094 21.480468 14.320313c2.535156 1.691406 5.78125 1.902344 8.515625.550781 2.734375-1.351562 4.539063-4.054687 4.734375-7.097656.199219-3.042969-1.242187-5.960938-3.777344-7.652344l-25.601562-17.066406c-2.542969-1.695312-5.796875-1.898438-8.53125-.539062l-28.632812 14.320312-21.246094-21.25c-2.59375-2.597656-6.5625-3.242188-9.847656-1.601562l-32.359376 16.167968h-15.050781v-15.820312c-.003906-.617188-.070312-1.234375-.199219-1.84375l-.605468-2.710938c-.125-.625-.324219-1.226562-.597656-1.800781l-15.605469-33.683594zm-251.625.109375h34.132813v17.289063c-5.597656-.109375-11.21875-.222656-17.066406-.222656h-17.066407zm17.066407 34.132813c110.976562 0 174.449218 21.890625 213.15625 39.527344v9.769531c-10.027344-2.25-19.542969-4.980469-22.230469-5.765625l-16.496094-8.535156c-1.816406-.945313-3.910156-1.207032-5.902344-.734376l-13.21875 3.117188-13.738281-9.960938c-2.519531-1.828124-5.835938-2.140624-8.652344-.808593l-13.59375 6.414062-13.507812-6.457031c-2.5-1.195312-5.417969-1.101562-7.835938.246094-3.730468 2.207031-7.839844 3.699218-12.117187 4.402344-6.597657-.492188-13.78125-1.089844-21.203125-1.707032-22.050782-1.832031-47.039063-3.90625-64.660156-3.90625l-51.199219.265625-.265625-25.867187zm0 0"/><path d="m59.742188 469.347656c0 4.714844-3.820313 8.535156-8.535157 8.535156-4.710937 0-8.53125-3.820312-8.53125-8.535156 0-4.710937 3.820313-8.53125 8.53125-8.53125 4.714844 0 8.535157 3.820313 8.535157 8.53125zm0 0"/><path d="m224.632812 180.308594 13.003907 6.136718c.296875.140626.601562.265626.910156.375 4.378906 1.46875 9.160156 1.136719 13.285156-.933593 4.128907-2.066407 7.257813-5.699219 8.699219-10.085938.109375-.320312.195312-.648437.265625-.980469l3.035156-14.949218c1.8125-6.109375.148438-12.71875-4.34375-17.238282l-9.386719-9.4375c-5.261718-5.355468-13.390624-6.683593-20.085937-3.285156l-7.144531 3.601563c-5.863282 2.964843-9.550782 8.984375-9.53125 15.554687v14.890625c-.011719 7.269531 4.488281 13.785157 11.292968 16.351563zm5.773438-31.242188c0-.140625.070312-.277344.1875-.355468l7.417969-3.542969 9.460937 9.898437c-.101562.316406-.183594.636719-.246094.964844l-3.191406 14.507812-12.457031-5.882812c-.292969-.144531-.855469-.636719-1.144531-.742188zm0 0"/><path d="m199.203125 266.675781c-3.105469 4.652344-3.734375 10.53125-1.679687 15.734375 2.050781 5.203125 6.523437 9.070313 11.96875 10.351563l24.746093 5.453125c1.347657.335937 2.726563.503906 4.113281.5 4.535157.003906 8.890626-1.785156 12.109376-4.980469.308593-.292969.59375-.605469.855468-.941406l8.796875-11.78125c4.230469-4.5625 5.625-11.074219 3.625-16.964844-.09375-.292969-.207031-.578125-.339843-.855469l-5.972657-12.988281c-1.488281-4.085937-4.488281-7.449219-8.382812-9.386719-3.804688-1.972656-8.234375-2.375-12.335938-1.125l-17.453125 4.265625c-3.542968 1.1875-6.601562 3.496094-8.710937 6.582031zm24.667969-6.332031 17.460937-4.269531c.101563.300781.21875.597656.347657.855469l5.792968 12.558593c-.273437.285157-.53125.585938-.773437.898438l-8.441407 11.316406-24.917968-5.410156zm0 0"/><path d="m176.707031 210.847656 8.535157-8.53125c3.234374-3.347656 3.1875-8.671875-.105469-11.964844-3.292969-3.289062-8.613281-3.335937-11.960938-.101562l-8.535156 8.53125c-2.21875 2.144531-3.105469 5.316406-2.324219 8.300781.777344 2.984375 3.109375 5.3125 6.09375 6.09375 2.980469.78125 6.15625-.109375 8.296875-2.328125zm0 0"/><path d="m290.140625 341.347656c3.453125 0 6.5625-2.078125 7.882813-5.265625 1.320312-3.1875.589843-6.859375-1.847657-9.300781l-8.535156-8.53125c-3.347656-3.234375-8.671875-3.1875-11.960937.101562-3.292969 3.292969-3.339844 8.617188-.105469 11.964844l8.535156 8.53125c1.597656 1.601563 3.769531 2.5 6.03125 2.5zm0 0"/></svg>